<svg version="1.1" id="Layer_1" xmlns="http://www.w3.org/2000/svg" xmlns:xlink="http://www.w3.org/1999/xlink" x="0px" y="0px"
	 width="100%" viewBox="0 0 896 816" enable-background="new 0 0 896 816" xml:space="preserve">
<path fill="#000000" opacity="1.000000" stroke="none" 
	d="
M746.238647,574.446655 
	C746.501770,578.657166 749.811646,578.060791 751.937012,578.422363 
	C767.460754,581.063354 780.974854,587.753967 792.980225,597.831604 
	C838.982910,636.447266 829.339294,713.197937 775.167542,739.302429 
	C731.833740,760.184204 682.057800,743.669922 660.492676,701.043091 
	C658.450134,697.005798 655.886414,696.237000 651.847168,696.240356 
	C547.184814,696.325928 442.522369,696.310425 337.859955,696.308533 
	C309.901062,696.308044 291.781036,680.724609 287.501221,653.032532 
	C287.454010,652.726990 287.214325,652.451172 286.982422,652.002869 
	C284.691040,651.122559 282.546722,652.373291 280.372467,652.891602 
	C262.258148,657.209717 244.509857,663.152405 226.146408,666.281372 
	C200.949646,670.574768 179.328201,656.268250 172.684052,631.483826 
	C166.914078,609.960205 161.438873,588.357361 155.877762,566.778076 
	C134.672028,484.491272 113.492256,402.197754 92.285973,319.911072 
	C83.529259,285.932465 74.679306,251.977783 65.966637,217.987900 
	C59.239189,191.742767 74.674126,166.861435 101.984413,159.810669 
	C191.184494,136.781631 280.390442,113.775337 369.595795,90.766693 
	C396.485962,83.830948 423.470154,77.239304 450.249664,69.900421 
	C476.871124,62.604843 503.594269,77.562920 510.403534,104.900154 
	C515.666321,126.028732 521.377319,147.046585 526.522827,168.202759 
	C527.738525,173.201340 529.870483,174.739777 534.968567,174.722443 
	C589.465759,174.537064 643.963867,174.536972 698.461487,174.622955 
	C721.533447,174.659348 739.440918,188.904129 744.744629,211.172531 
	C745.862366,215.865402 746.222961,220.672623 746.221741,225.529617 
	C746.192871,341.690552 746.208862,457.851501 746.238647,574.446655 
M302.014496,455.500000 
	C302.020844,518.992920 302.339966,582.488220 301.861267,645.977478 
	C301.697113,667.748230 318.084991,682.077209 337.722717,681.948730 
	C420.210632,681.408875 502.704163,681.716431 585.195618,681.713318 
	C606.026794,681.712463 626.858398,681.641846 647.688782,681.769470 
	C651.540833,681.793091 653.269531,680.824707 652.550415,676.645447 
	C650.842896,666.721313 651.094727,656.772278 652.702026,646.846436 
	C658.495850,611.067688 690.842529,580.706055 726.593933,577.775940 
	C730.948059,577.419067 731.704529,575.513977 731.702454,571.743591 
	C731.639404,455.422302 731.664368,339.101013 731.617432,222.779724 
	C731.614868,216.371613 730.090454,210.244186 726.618958,204.733566 
	C719.338623,193.176804 708.597595,188.820969 695.257324,188.869232 
	C648.762756,189.037430 602.267151,188.949265 555.771973,188.947662 
	C483.279510,188.945160 410.787018,188.935699 338.294556,188.922989 
	C331.408051,188.921783 324.704407,189.498474 318.553467,193.155624 
	C306.398224,200.382736 301.909485,211.219833 301.940796,225.024094 
	C302.114288,301.515717 302.020416,378.007965 302.014496,455.500000 
M495.791534,106.654816 
	C494.441162,101.950325 492.348083,97.586044 489.115143,93.919014 
	C478.735107,82.145363 465.992249,80.588562 451.368317,84.407494 
	C370.584320,105.503662 289.732849,126.341721 208.895752,147.234390 
	C173.630417,156.348831 138.304169,165.230728 103.084648,174.518051 
	C85.763145,179.085678 75.764061,196.389542 80.203072,213.791092 
	C94.051018,268.077057 108.083725,322.315918 122.039909,376.574310 
	C136.159317,431.467255 150.257736,486.365601 164.395218,541.253906 
	C171.858414,570.229614 179.161118,599.249512 186.964615,628.133728 
	C191.904846,646.419617 207.533752,655.901123 225.634644,651.708618 
	C244.585632,647.319092 263.354523,642.148193 282.264465,637.572937 
	C286.431427,636.564758 287.775269,634.739685 287.746704,630.435364 
	C287.551086,600.937256 287.647095,571.437256 287.596161,541.937927 
	C287.592865,540.021790 288.033936,537.986511 286.807404,535.904114 
	C285.310913,537.219482 283.608978,537.814758 281.828217,538.272095 
	C262.177216,543.318909 242.501160,548.273315 222.907272,553.533508 
	C218.109161,554.821533 216.003036,553.006165 214.912613,548.776184 
	C210.470551,531.544678 206.151398,514.280090 201.506943,497.103394 
	C200.231049,492.384766 201.884445,490.151550 206.167206,489.043060 
	C225.797516,483.962036 245.436050,478.912415 265.052307,473.777679 
	C269.549347,472.600586 271.943176,474.145142 273.031433,478.653259 
	C275.332245,488.184113 277.849182,497.663330 280.326416,507.150940 
	C282.226410,514.427734 284.201508,521.684875 286.143188,528.950806 
	C287.145874,526.323120 287.605621,523.849121 287.608246,521.374634 
	C287.648621,483.542114 287.624420,445.709564 287.634064,407.876984 
	C287.634735,405.142944 287.216827,402.960144 284.780273,400.925293 
	C280.602539,397.436401 280.210968,391.722656 284.192200,388.697937 
	C288.697632,385.274994 287.629791,381.404022 287.047028,377.205963 
	C279.482147,377.158661 276.165283,375.177521 275.227783,370.324097 
	C274.307190,365.558105 276.686188,362.503357 283.966370,360.273499 
	C287.383972,359.226746 287.667755,357.133850 287.660492,354.258179 
	C287.605682,332.592102 287.642944,310.925781 287.596741,289.259674 
	C287.592255,287.162140 287.930115,284.940521 286.373413,282.633423 
	C279.036865,284.490540 271.670807,286.485748 264.239288,288.196472 
	C257.886230,289.658966 253.768524,287.602264 252.682175,282.819092 
	C251.464005,277.455536 253.553589,274.315399 260.024567,272.444519 
	C267.056519,270.411469 274.141235,268.548523 281.244690,266.778778 
	C288.236176,265.036957 289.041931,263.628632 286.645752,256.219879 
	C283.437683,255.866333 280.474609,257.144531 277.448059,257.895325 
	C270.832672,259.536377 264.290558,261.483276 257.652283,263.018860 
	C251.631149,264.411621 247.352829,262.111328 246.099411,257.246124 
	C244.941620,252.752228 247.683029,248.935928 253.417496,247.098068 
	C254.684723,246.691940 255.969742,246.335953 257.258698,246.003876 
	C265.634216,243.846008 273.977844,241.546860 282.406586,239.620911 
	C286.287323,238.734192 287.896729,237.086899 287.764832,232.862289 
	C287.557617,226.224670 286.907410,219.495911 288.170166,212.913742 
	C292.979492,187.845398 315.294464,174.272751 335.070007,174.438431 
	C392.398193,174.918747 449.732971,174.616623 507.065155,174.609512 
	C513.119263,174.608765 513.236633,174.466537 511.783173,168.785568 
	C506.548096,148.323868 501.283295,127.869774 495.791534,106.654816 
M741.569641,612.859314 
	C733.288940,609.777588 726.734131,614.186340 726.409668,623.396729 
	C726.134155,631.217285 726.153259,639.060425 726.397278,646.882446 
	C726.528931,651.103516 724.878906,652.406372 720.844238,652.284668 
	C713.354065,652.058533 705.852234,652.168945 698.355713,652.216736 
	C690.700623,652.265564 686.383240,655.941345 686.267639,662.382385 
	C686.144775,669.224976 690.234192,672.889771 698.375671,672.999207 
	C705.871155,673.099976 713.372375,673.160156 720.864502,672.974121 
	C724.866211,672.874817 726.557922,674.168945 726.403198,678.421265 
	C726.130920,685.907837 726.236511,693.414062 726.379395,700.908325 
	C726.529175,708.762207 730.627808,713.617920 736.856079,713.673157 
	C743.475403,713.731873 747.596619,708.884949 747.660095,700.823914 
	C747.719116,693.327576 747.842590,685.825317 747.613098,678.335632 
	C747.493530,674.434631 748.909180,672.949707 752.781799,673.014648 
	C760.775574,673.148499 768.776855,673.142639 776.769226,672.950623 
	C783.695496,672.784180 788.387146,668.245789 788.154968,662.345581 
	C787.933289,656.712524 783.049622,652.358582 776.590393,652.266907 
	C768.595093,652.153503 760.596069,652.103943 752.601685,652.226807 
	C748.965576,652.282654 747.551880,650.888000 747.631226,647.215698 
	C747.800354,639.389465 747.687134,631.556763 747.661865,623.726807 
	C747.647644,619.302979 746.320068,615.531372 741.569641,612.859314 
z"/>
<path fill="#000000" opacity="1.000000" stroke="none" 
	d="
M348.669678,319.999939 
	C348.670441,297.181396 348.664062,274.862854 348.676819,252.544342 
	C348.680939,245.334457 349.286346,244.690796 356.255585,244.688141 
	C395.729401,244.673111 435.203186,244.672363 474.677002,244.683167 
	C481.702301,244.685089 482.320374,245.326813 482.323212,252.473907 
	C482.335175,282.787109 482.338470,313.100342 482.329681,343.413544 
	C482.327698,350.233551 481.344666,351.254272 474.522186,351.257202 
	C435.214935,351.273987 395.907715,351.271301 356.600464,351.244568 
	C349.758087,351.239929 348.708984,350.169281 348.681732,343.484741 
	C348.650482,335.823242 348.671600,328.161560 348.669678,319.999939 
z"/>
<path fill="#000000" opacity="1.000000" stroke="none" 
	d="
M348.762054,419.000244 
	C348.766510,412.843353 348.813538,407.186005 348.761871,401.529572 
	C348.722076,397.170898 350.891602,395.053192 355.151489,395.048309 
	C375.616211,395.024933 396.080994,395.045258 416.545685,395.018066 
	C420.651306,395.012604 422.843170,397.067230 422.855530,401.065338 
	C422.912201,419.366058 422.884216,437.667145 422.829803,455.967957 
	C422.814148,461.230225 419.191559,462.053986 414.983734,462.052734 
	C400.342133,462.048462 385.700500,462.063660 371.058899,462.062073 
	C366.233856,462.061523 361.408356,462.068573 356.583893,462.007690 
	C350.167755,461.926697 348.781342,460.512756 348.763763,453.941376 
	C348.733032,442.461060 348.759613,430.980591 348.762054,419.000244 
z"/>
<path fill="#000000" opacity="1.000000" stroke="none" 
	d="
M378.999939,579.307739 
	C370.836731,579.300293 363.172882,579.228394 355.510620,579.308777 
	C350.873199,579.357422 348.792023,577.078064 348.790649,572.597473 
	C348.785095,554.605713 348.772827,536.613953 348.776001,518.622192 
	C348.776703,514.517822 350.762329,512.625122 354.968018,512.639893 
	C375.625031,512.712402 396.282898,512.736572 416.939453,512.615051 
	C421.070740,512.590820 422.844635,514.566345 422.853394,518.279602 
	C422.896545,536.602722 422.852142,554.926331 422.771637,573.249451 
	C422.752319,577.644043 420.218872,579.345703 415.983307,579.320068 
	C403.822601,579.246399 391.661133,579.302429 378.999939,579.307739 
z"/>
<path fill="#000000" opacity="1.000000" stroke="none" 
	d="
M506.000000,450.144043 
	C491.334717,450.141693 477.169037,450.201508 463.004303,450.110748 
	C455.454773,450.062408 451.784271,447.202728 451.687225,441.716400 
	C451.611328,437.427582 453.723816,434.658997 457.805267,433.800201 
	C460.710419,433.188904 463.756958,433.043884 466.740631,433.042084 
	C534.234009,433.001221 601.727478,433.000183 669.220886,433.038330 
	C672.035950,433.039917 674.884888,433.297119 677.657898,433.780273 
	C681.984619,434.534119 683.789429,437.818359 683.894470,441.716370 
	C683.991455,445.312744 681.962524,448.011505 678.381348,449.225830 
	C675.654724,450.150299 672.827393,450.158295 669.984192,450.157410 
	C615.489441,450.140411 560.994751,450.144135 506.000000,450.144043 
z"/>
<path fill="#000000" opacity="1.000000" stroke="none" 
	d="
M515.000000,567.296082 
	C496.851410,567.291443 479.202637,567.334534 461.554382,567.256104 
	C455.190826,567.227844 451.746155,564.262634 451.674896,559.160339 
	C451.613403,554.754822 454.296875,551.475037 458.643494,550.801941 
	C459.948608,550.599854 461.300720,550.668640 462.631317,550.668579 
	C532.726196,550.665466 602.821106,550.667053 672.915955,550.678589 
	C674.411133,550.678833 675.951599,550.590576 677.392761,550.903564 
	C681.252380,551.741577 683.546021,554.300781 683.827026,558.183289 
	C684.102539,561.990479 682.487183,564.893982 678.717346,566.430908 
	C676.138062,567.482544 673.489075,567.296936 670.840942,567.297363 
	C619.060608,567.305908 567.280334,567.299316 515.000000,567.296082 
z"/>
<path fill="#000000" opacity="1.000000" stroke="none" 
	d="
M619.000000,423.963196 
	C567.547485,423.964722 516.595032,423.976013 465.642578,423.939209 
	C462.996124,423.937286 460.296936,423.780975 457.716156,423.244843 
	C453.805115,422.432312 451.760559,419.725403 451.688538,415.745789 
	C451.613373,411.594299 453.488007,408.650391 457.686493,407.732819 
	C459.940430,407.240204 462.295227,407.002136 464.604706,407.000763 
	C522.550659,406.966400 580.496582,406.972900 638.442566,407.006805 
	C640.592590,407.008057 642.745972,407.323212 644.891541,407.550873 
	C649.470276,408.036621 651.602478,411.014801 652.065857,415.209808 
	C652.498108,419.122009 649.432312,422.600189 644.933777,423.499481 
	C639.662537,424.553284 634.306702,423.799713 628.990723,423.948608 
	C625.829468,424.037170 622.663757,423.963684 619.000000,423.963196 
z"/>
<path fill="#000000" opacity="1.000000" stroke="none" 
	d="
M470.011292,524.664307 
	C526.634216,524.664917 582.759399,524.665649 638.884583,524.666626 
	C640.050354,524.666626 641.216553,524.650940 642.381897,524.673950 
	C648.353271,524.791687 651.997681,527.688843 652.162476,532.436157 
	C652.329773,537.255188 648.447327,540.829529 642.574524,541.222046 
	C641.413452,541.299683 640.243774,541.256836 639.078064,541.256714 
	C580.954346,541.251831 522.830688,541.248474 464.706970,541.228455 
	C462.389709,541.227661 460.086060,541.328430 457.779663,540.634460 
	C453.220764,539.262939 451.203461,536.263977 451.751404,531.641724 
	C452.284821,527.142395 455.132477,524.920959 459.522583,524.724487 
	C462.847137,524.575623 466.182831,524.675354 470.011292,524.664307 
z"/>
<path fill="#000000" opacity="1.000000" stroke="none" 
	d="
M547.999878,319.337646 
	C535.348450,319.336731 523.196960,319.362305 511.045776,319.305298 
	C509.241791,319.296844 507.336029,319.198730 505.658142,318.618958 
	C502.147705,317.405945 500.316650,314.726776 500.403168,310.974060 
	C500.488159,307.286621 502.222992,304.690918 505.797150,303.385559 
	C507.901184,302.617096 510.055817,302.733704 512.212036,302.733459 
	C565.478516,302.727112 618.744934,302.727448 672.011414,302.726624 
	C672.677246,302.726624 673.343384,302.713593 674.008850,302.729736 
	C680.543396,302.888489 684.327332,305.997192 684.252258,311.139130 
	C684.177490,316.256622 680.368591,319.320709 673.842590,319.324097 
	C632.061707,319.345795 590.280823,319.336487 547.999878,319.337646 
z"/>
<path fill="#000000" opacity="1.000000" stroke="none" 
	d="
M627.999268,276.662445 
	C633.496704,276.670258 638.498108,276.561401 643.491089,276.718475 
	C648.702576,276.882416 652.007263,279.940979 652.249451,284.486298 
	C652.473328,288.688141 649.556213,292.072845 644.741272,292.999329 
	C643.285461,293.279449 641.758545,293.258514 640.264160,293.259033 
	C597.450012,293.273712 554.635864,293.272736 511.821747,293.278259 
	C509.652863,293.278534 507.531219,293.212799 505.445465,292.383484 
	C501.696259,290.892761 499.879211,288.031555 500.149811,284.227509 
	C500.440521,280.141785 502.935669,277.515198 507.063934,276.823425 
	C508.689484,276.551025 510.386597,276.671326 512.051147,276.670990 
	C550.533936,276.663391 589.016663,276.663757 627.999268,276.662445 
z"/>
<path fill="#000000" opacity="1.000000" stroke="none" 
	d="
M142.739594,268.835083 
	C142.267563,265.029022 143.735703,263.126495 147.044983,262.273499 
	C167.298004,257.053009 187.527924,251.742905 207.776581,246.505325 
	C211.914810,245.434921 213.444046,247.984055 214.329147,251.435623 
	C217.959061,265.590790 221.631561,279.735016 225.297607,293.880890 
	C226.172882,297.258301 227.079437,300.627594 227.979263,303.998596 
	C229.001648,307.828735 227.383942,310.163605 223.731827,311.110168 
	C203.633698,316.319092 183.510681,321.432312 163.422745,326.679962 
	C158.208084,328.042206 157.023209,324.638153 156.057938,320.903900 
	C151.900681,304.820892 147.794006,288.724884 143.666992,272.634064 
	C143.378296,271.508453 143.073914,270.386810 142.739594,268.835083 
z"/>
<path fill="#000000" opacity="1.000000" stroke="none" 
	d="
M253.072464,401.177795 
	C254.447311,406.562164 255.798782,411.532166 256.965881,416.545105 
	C258.191711,421.810394 257.222504,423.428680 251.937439,424.803406 
	C232.813492,429.777863 213.679199,434.713165 194.531494,439.595337 
	C188.301636,441.183777 187.034424,440.371460 185.399841,434.095581 
	C181.046844,417.382294 176.692215,400.669312 172.418274,383.935730 
	C170.959976,378.226135 171.796875,376.935822 177.471039,375.462524 
	C196.747360,370.457428 216.023636,365.451782 235.314026,360.501251 
	C240.879501,359.072968 242.019028,359.761383 243.473892,365.170959 
	C246.664490,377.034454 249.806290,388.911072 253.072464,401.177795 
z"/>
</svg>