<svg version="1.1" id="Layer_1" xmlns="http://www.w3.org/2000/svg" xmlns:xlink="http://www.w3.org/1999/xlink" x="0px" y="0px"
	 width="100%" viewBox="0 0 400 320" enable-background="new 0 0 400 320" xml:space="preserve">
<path fill="#000000" opacity="1.000000" stroke="none" 
	d="
M109.256638,276.649170 
	C102.853973,260.834930 98.770622,244.665497 93.768661,228.792999 
	C85.011124,201.003113 76.354195,173.181381 67.714722,145.354492 
	C62.286274,127.870041 56.838932,110.389526 51.652958,92.832550 
	C49.135780,84.310707 50.817268,81.371780 59.316338,78.664047 
	C69.143089,75.533325 79.054657,72.665375 88.955757,69.773613 
	C91.903366,68.912720 94.126190,67.896912 93.841797,64.096077 
	C93.594154,60.786362 96.290489,59.679913 98.950249,58.871075 
	C105.642052,56.836082 112.347961,54.846836 119.027939,52.773926 
	C121.366096,52.048355 123.645035,51.131931 126.409042,50.137939 
	C122.990303,45.487648 121.409477,41.010643 125.064949,36.482525 
	C127.552933,33.400589 131.031311,32.072285 134.914261,33.164783 
	C140.594833,34.763062 142.360397,39.303547 142.333176,45.137512 
	C148.964493,44.205410 154.641281,41.792126 160.513260,40.157009 
	C163.561768,39.308113 166.643143,38.528732 169.608276,37.441422 
	C173.228409,36.113922 176.207108,36.232597 177.855682,40.253788 
	C178.881912,42.757011 180.654724,42.066303 182.423187,41.522072 
	C192.607803,38.387802 202.799011,35.274239 212.965393,32.081669 
	C222.358856,29.131813 225.732132,30.916636 228.477707,40.216213 
	C230.692001,47.716240 233.066498,55.169006 235.377151,62.640511 
	C235.819199,64.069847 236.097565,65.860725 237.623383,66.355011 
	C245.196686,68.808372 246.991211,74.088676 244.964172,81.080597 
	C246.900879,82.382370 248.790009,81.977028 250.583771,81.988510 
	C258.082489,82.036552 265.581818,81.983574 273.080719,82.017639 
	C275.805756,82.030014 279.218323,82.171898 279.642273,85.282471 
	C280.326660,90.303894 283.498596,89.744797 286.862213,89.728905 
	C297.027466,89.680878 307.193207,89.673508 317.358521,89.713539 
	C325.673462,89.746277 329.044128,92.994240 329.045288,101.128700 
	C329.054199,163.121246 329.039307,225.113815 328.997192,287.106354 
	C328.991058,296.132660 325.891968,299.205139 317.029419,299.214508 
	C275.367737,299.258514 233.704498,299.098785 192.045380,299.442719 
	C180.387909,299.538971 168.742935,299.243896 157.091492,299.272400 
	C146.250122,299.298920 143.836197,296.689819 143.832352,286.043121 
	C143.831451,283.544647 143.943390,281.025360 143.671722,278.552094 
	C143.144791,273.754700 141.675461,272.873199 137.104202,274.282104 
	C131.535568,275.998413 125.986435,277.779785 120.400581,279.437744 
	C116.339874,280.642975 112.476746,280.622192 109.256638,276.649170 
M159.387634,92.397514 
	C148.234436,92.386475 147.199173,93.037025 147.198288,100.674995 
	C147.190964,162.998505 147.204880,225.322006 147.241852,287.645508 
	C147.245956,294.575989 148.572205,295.892273 155.428101,295.897583 
	C209.253067,295.939362 263.078064,295.960114 316.903046,295.969299 
	C324.348480,295.970581 325.621307,294.726257 325.574738,287.207306 
	C325.449829,267.049072 325.529694,246.892487 325.245514,226.731277 
	C324.792389,194.583176 325.116547,162.424072 325.119720,130.269623 
	C325.120728,120.285126 325.327515,110.296455 325.097656,100.317589 
	C324.944305,93.658897 323.470306,92.426346 317.016998,92.389069 
	C306.518951,92.328423 296.018341,92.478447 285.523010,92.296555 
	C281.676392,92.229897 279.866699,93.523010 280.225922,97.473099 
	C280.346161,98.795219 280.245880,100.137619 280.242218,101.470741 
	C280.221558,108.964401 279.118011,110.146729 271.551788,110.165009 
	C249.388611,110.218575 227.225266,110.211548 205.061996,110.215721 
	C192.395905,110.218102 192.297119,110.208839 192.074738,97.598633 
	C192.007385,93.780243 190.682144,92.256378 186.758392,92.325439 
	C177.944855,92.480583 169.126160,93.560303 159.387634,92.397514 
M144.380768,95.511200 
	C146.292221,91.078331 149.838181,89.637436 154.439484,89.679344 
	C165.267242,89.777954 176.096741,89.672501 186.924927,89.743698 
	C189.635818,89.761520 191.803680,89.532646 192.493362,86.232193 
	C193.275604,82.488808 196.411621,82.058357 199.521866,82.028877 
	C207.017914,81.957825 214.515228,82.017670 222.011307,81.947716 
	C223.768539,81.931320 225.707016,82.445541 227.409607,80.624969 
	C226.162323,75.348930 227.079514,70.590271 232.164413,67.320801 
	C233.867294,66.225891 233.020477,64.696556 232.568985,63.279663 
	C229.991638,55.191090 227.444946,47.092663 224.843521,39.011860 
	C223.193954,33.887814 220.892426,32.675343 215.832794,34.195686 
	C206.269836,37.069210 196.733459,40.033394 187.146759,42.824970 
	C179.429474,45.072182 179.403778,44.983952 181.759720,52.446972 
	C184.495514,61.113213 183.911713,62.274097 175.230103,64.902771 
	C154.682404,71.124313 134.095337,77.217873 113.583740,83.555855 
	C101.795547,87.198334 100.558662,88.827377 96.772163,75.375359 
	C96.637283,74.896172 96.385262,74.449486 96.255829,73.969315 
	C95.588646,71.494034 94.041756,70.936012 91.694084,71.663612 
	C80.725975,75.062904 69.692696,78.261055 58.786106,81.845703 
	C53.531681,83.572670 52.666824,86.055908 54.379692,91.573357 
	C68.688499,137.664597 83.007401,183.752686 97.297005,229.849854 
	C101.436111,243.202286 105.435265,256.598236 109.606010,269.940674 
	C111.762917,276.840668 114.112267,278.081757 120.580711,276.153809 
	C126.641121,274.347473 132.647995,272.336670 138.767776,270.763397 
	C142.695282,269.753723 144.042770,267.674561 143.924469,263.665680 
	C143.443115,247.355011 143.864044,231.038696 143.188217,214.714142 
	C141.843918,182.242722 143.739960,149.765396 143.750916,117.286568 
	C143.753281,110.297256 143.968079,103.308006 144.380768,95.511200 
M128.435135,43.028389 
	C129.677383,45.496292 131.399200,47.094788 134.294571,45.660286 
	C136.039474,44.795780 137.020035,43.231689 136.591705,41.196835 
	C136.183731,39.258568 134.841583,37.769413 132.943909,37.679859 
	C129.972870,37.539650 128.654907,39.574001 128.435135,43.028389 
M232.476410,75.013153 
	C232.190308,78.415535 233.879456,79.982971 237.140564,79.591515 
	C238.873856,79.383453 240.115356,78.086411 240.308212,76.274765 
	C240.498047,74.491234 239.609512,73.038857 238.021973,72.255463 
	C235.565567,71.043304 234.006866,72.438667 232.476410,75.013153 
z"/>
<path fill="#000000" opacity="1.000000" stroke="none" 
	d="
M160.286606,273.129639 
	C160.416260,254.267319 160.620926,235.822342 160.903015,217.378571 
	C160.949768,214.322144 160.300369,211.122910 162.098129,207.870102 
	C164.938629,209.221786 164.900070,211.644409 164.900452,213.822021 
	C164.902298,224.255630 168.341949,234.119843 170.365433,244.159943 
	C171.713028,250.846313 177.055801,256.247009 181.892120,261.315063 
	C184.054153,263.580688 186.258545,262.687988 187.845963,260.615051 
	C190.947235,256.565155 193.508102,257.985046 197.006653,260.423553 
	C202.438126,264.209351 202.736664,270.539154 205.855301,275.297943 
	C204.854736,276.791534 203.470886,276.867554 202.160904,276.900696 
	C189.878601,277.211243 177.595840,277.512787 165.311737,277.736206 
	C162.575150,277.786011 161.170868,275.955017 160.286606,273.129639 
z"/>
<path fill="#000000" opacity="1.000000" stroke="none" 
	d="
M95.790489,144.595596 
	C98.018852,143.922379 99.729904,144.479736 101.438927,145.240921 
	C105.521217,147.059128 109.323814,149.386292 113.664589,150.775299 
	C119.387871,152.606689 121.976135,157.602753 123.685448,162.996140 
	C124.741165,166.327255 125.515594,169.748077 126.589111,173.072845 
	C128.114304,177.796417 128.403320,182.869522 134.193665,185.589951 
	C137.503250,187.144867 138.601959,191.528915 137.330246,195.794403 
	C136.120636,199.851624 134.053528,202.574280 129.574875,203.081528 
	C126.100487,203.475021 124.455162,205.667206 124.018250,209.098007 
	C122.803200,218.638901 120.002167,227.741455 116.061829,236.633835 
	C114.066322,235.334885 113.774910,233.068542 112.886169,231.192993 
	C104.099983,212.651108 100.476868,192.401062 93.734413,173.181274 
	C92.743225,170.355789 92.022606,167.415909 90.813560,164.690063 
	C87.319527,156.812561 88.895432,150.229675 95.790489,144.595596 
z"/>
</svg>